<?xml version="1.0" standalone="no"?>
<!DOCTYPE svg PUBLIC "-//W3C//DTD SVG 20010904//EN"
 "http://www.w3.org/TR/2001/REC-SVG-20010904/DTD/svg10.dtd">
<svg version="1.0" xmlns="http://www.w3.org/2000/svg"
 width="108.000000pt" height="54.000000pt" viewBox="0 0 108.000000 54.000000"
 preserveAspectRatio="xMidYMid meet">

<g transform="translate(0.000000,54.000000) scale(0.100000,-0.100000)"
fill="#000000" stroke="none">
<path d="M27 522 l-29 -3 3 -127 c4 -165 3 -162 50 -162 32 0 39 3 39 20 0 13
7 20 19 20 10 0 29 8 40 18 20 15 22 28 24 108 3 131 -9 141 -146 126z m73
-128 c0 -24 -4 -44 -8 -44 -5 0 -8 22 -8 49 0 28 3 48 8 45 4 -3 8 -25 8 -50z"/>
<path d="M724 523 c-31 -4 -31 -5 -32 -61 -1 -31 -9 -84 -18 -117 -25 -93 -26
-90 34 -90 40 0 56 -4 63 -17 6 -11 22 -18 39 -18 33 0 35 8 21 75 -5 22 -12
84 -16 138 l-7 97 -26 -2 c-15 0 -41 -3 -58 -5z m23 -205 c-3 -8 -6 -5 -6 6
-1 11 2 17 5 13 3 -3 4 -12 1 -19z"/>
<path d="M864 521 c-2 -2 -4 -62 -4 -132 l0 -127 35 -4 c27 -3 35 0 35 12 0
10 6 6 18 -11 9 -14 24 -32 32 -40 17 -17 60 -22 60 -8 0 5 -10 10 -22 10 -19
1 -20 2 -5 6 15 4 17 10 11 31 -8 29 -7 34 2 100 9 60 -4 130 -27 153 -16 16
-31 19 -75 17 -31 -2 -58 -5 -60 -7z m96 -105 c0 -18 -6 -39 -14 -45 -11 -10
-15 -4 -18 29 -3 36 2 47 25 49 4 1 7 -14 7 -33z"/>
<path d="M435 511 c-9 -15 -12 -217 -3 -226 3 -4 19 -5 35 -3 l28 4 -25 11
c-24 11 -24 12 -2 12 16 1 22 7 23 24 0 12 2 18 4 12 2 -5 16 -50 31 -98 28
-92 38 -103 77 -93 23 5 24 8 24 141 l1 135 -29 0 c-21 0 -29 -5 -29 -17 0
-28 -16 -2 -30 50 -7 26 -18 47 -25 47 -7 0 -26 3 -43 6 -17 4 -32 1 -37 -5z"/>
<path d="M560 510 c0 -5 16 -10 35 -10 19 0 35 5 35 10 0 6 -16 10 -35 10 -19
0 -35 -4 -35 -10z"/>
<path d="M568 484 c-3 -3 -4 -14 -1 -25 6 -20 47 -27 58 -9 4 6 -6 10 -22 10
l-28 1 30 14 30 13 -31 1 c-17 1 -33 -2 -36 -5z"/>
<path d="M343 364 c-28 -12 -13 -34 23 -34 28 0 35 3 32 18 -3 17 -32 25 -55
16z"/>
<path d="M190 353 c0 -11 14 -56 44 -138 18 -50 26 -90 26 -142 l0 -73 29 0
c17 0 32 4 35 9 6 10 27 131 29 171 1 14 7 28 12 32 6 4 -3 8 -18 8 -16 0 -26
-4 -22 -10 3 -5 2 -10 -4 -10 -15 0 -30 32 -44 97 -13 57 -14 58 -50 61 -20 2
-37 0 -37 -5z"/>
<path d="M345 310 c-16 -7 -11 -9 20 -9 29 -1 36 2 25 9 -17 11 -19 11 -45 0z"/>
<path d="M323 261 c-2 -21 36 -36 51 -21 7 7 2 10 -12 10 -12 0 -22 5 -22 10
0 6 11 8 25 4 15 -4 25 -2 25 5 0 6 -15 11 -33 11 -25 0 -33 -4 -34 -19z"/>
<path d="M439 256 c10 -12 10 -16 2 -16 -7 0 -10 -4 -7 -9 3 -5 17 -8 31 -8
37 0 28 41 -10 45 -25 3 -27 2 -16 -12z"/>
<path d="M665 240 c-7 -11 38 -21 48 -11 5 5 -3 11 -18 13 -14 3 -28 2 -30 -2z"/>
<path d="M865 240 c-4 -6 6 -11 22 -11 22 -1 24 -3 6 -6 -33 -7 -26 -43 9 -43
23 0 27 4 25 28 -2 34 -46 57 -62 32z"/>
<path d="M22 212 c-27 -9 -9 -22 28 -22 22 0 40 4 40 9 0 10 -50 19 -68 13z"/>
<path d="M440 200 c0 -5 14 -10 31 -10 17 0 28 4 24 10 -3 6 -17 10 -31 10
-13 0 -24 -4 -24 -10z"/>
<path d="M655 200 c-4 -6 7 -10 25 -10 18 0 29 4 25 10 -3 6 -15 10 -25 10
-10 0 -22 -4 -25 -10z"/>
<path d="M780 201 c0 -13 27 -21 45 -15 8 4 12 10 9 15 -7 12 -54 12 -54 0z"/>
<path d="M1023 193 c-26 -5 -29 -13 -11 -31 14 -14 28 -15 46 -4 12 8 7 43 -7
41 -3 -1 -16 -4 -28 -6z"/>
<path d="M13 168 c2 -7 16 -13 32 -13 16 0 30 6 33 13 2 8 -8 12 -33 12 -25 0
-35 -4 -32 -12z"/>
<path d="M446 171 c-9 -14 5 -19 34 -10 14 4 20 7 13 8 -6 1 -18 4 -26 7 -8 3
-18 1 -21 -5z"/>
<path d="M652 168 c5 -15 48 -18 48 -3 0 6 -11 11 -26 13 -18 3 -25 0 -22 -10z"/>
<path d="M775 160 c8 -13 35 -13 55 0 11 7 5 10 -23 10 -23 0 -36 -4 -32 -10z"/>
<path d="M880 160 c0 -5 11 -10 25 -10 14 0 25 5 25 10 0 6 -11 10 -25 10 -14
0 -25 -4 -25 -10z"/>
</g>
</svg>
