<svg  xmlns="http://www.w3.org/2000/svg"
viewBox="0 0 1250 400">
<path fill="#ffffff" d="M447.844 216.75 287.844 392.75C284.688 396.25 280.344 398 276 398 272.156 398 268.297 396.625 265.234 393.844 258.703 387.906 258.219 377.781 264.156 371.25L399.83 222H36C27.156 222 20 214.844 20 206S27.156 190 36 190H399.83L264.156 40.75C258.219 34.219 258.703 24.094 265.234 18.156 271.781 12.25 281.891 12.688 287.844 19.25L447.844 195.25C453.391 201.344 453.391 210.656 447.844 216.75Z M633.75 27.75c-44.5 7-47.5 7.75-47.5 11.25 0 2 2.5 3.5 6.5 3.5 3.5 0 8.5 1.25 11 2.5 9.75 5.25 10.25 10.75 5 36.75-7.5 34.5-6.75 33.25-15.25 33.25-13.75 0-46 7.75-61 14.75-21.25 9.75-41.75 29.5-51.5 49.25-15 30.5-10 60.5 13.5 79.5 8.75 7 11.5 7.75 26.75 7.75 14.5 0 19.5-1.25 34.25-9l17.5-9-2 9c-1 4.75-1.5 9.25-1 9.75.5.5 15.25-1 32.75-3 34.5-4.25 41.75-8 26.5-13.25-5-1.75-9.5-3.25-9.75-3.25 0 0-1.5-3.5-3-7.75-2.25-6.75.5-22.5 18.5-108.25 11.75-55 22-101.75 22.5-103.5 1.25-3.5-3.25-3.5-23.75-.25zm-36.75 101.5c.75 1.25-3.75 24.5-9.75 52-6 27.5-11 50.25-11 50.75-.25 2.5-27.5 13-33.75 13-10.75 0-23.5-8.75-27.75-18.75-4.75-11.25-4.5-35 .5-49.5 6.75-19.75 28.5-40.75 48.5-47 8.25-2.5 32-2.75 33.25-.5zM750.5 117.75c-15.75 3.75-34.5 14.75-49.75 29.25-39.25 37.25-39.25 89.25 0 112.25 10 6 14.5 7 30.5 7 23.25 0 40.5-7.5 58.5-26 15.25-15.5 13.25-20.75-3.5-9.25-16.25 11.25-28 15-41.75 13.25-19-2-33-16-35-34.75l-1.25-11 22-4.5c46-9 78.5-31 78.5-53 0-20.75-25.5-31-58.25-23.25zm16.25 14c5.5 5 5.75 16 .75 26-5.25 9.75-21.75 21.5-37 26-21.75 6.5-22.5 5.5-14-17.5 11-29.5 36.5-47 50.25-34.5zM936 19c-16.5 5-34.75 22.25-44 41.5-7.5 15.5-15.75 43.5-15.75 54 0 4.75-1.5 5.25-18 6-16.75.75-18.25 1.25-19 6.25-.75 5.5 0 5.75 15.5 5.75 11.75 0 16.5 1 16.5 3.25 0 12.75-33 180.5-37.5 191.25-3.5 8-10 17-17 23-24.75 21.75-53 14.25-60.75-16.5-1.5-6-4-11-5.75-11-2.5 0-17.5 44.75-15.75 46.75 2.25 2 29 5.75 42 5.75 52 0 85-25.25 101-77.5 2.25-7.5 10.5-47.5 18.5-88.75l14.25-75 14.25-.75c13.25-.75 14.25-1.25 14.25-6.75 0-5.75-1-6.25-12.5-6.25-6.75 0-12.5-1-12.5-2 0-10.5 13.25-65 18-73.25 14.25-25.5 43.25-21.25 48.25 7.25 1 5.75 2.75 10.5 4 10.5 3 0 17-46 14.25-47-1.25-.5-3.75.25-5.75 2-2.5 2-6 2-13 .25-12.75-3.75-29.5-3.25-43.5 1.25zM1088.5 35.5c-41.5 31-78 73.5-95 110.75-14.25 31.5-18.25 51.75-18.25 88.75 0 48.25 9.5 82 36.25 128.75 20.75 36.75 29.5 42.25 17.25 11-23.25-60-23.75-137.25-1.25-206.25 15-45.75 36.75-83.75 71-124.5 24.75-29 21.5-31.75-10-8.5zM1167 23c6.25 15.25 19.5 59.25 22 73 3.75 22 1.5 89-3.75 112.75-14 62-41.75 116.5-83.75 165-21.75 24.75-18 27.25 10.25 7 98-70 136.75-169.25 105.25-269.25-10.75-34.5-41-91.5-48.5-91.5-1.5 0-2 1.5-1.5 3z"/>
</svg>
