<svg xmlns="http://www.w3.org/2000/svg" viewBox="0 0 448 512"><path fill="#ffffff" d="M384 32H64C28.656 32 0 60.656 0 96V416C0 451.344 28.656 480 64 480H384C419.344 480 448 451.344 448 416V96C448 60.656 419.344 32 384 32ZM400 416C400 424.82 392.82 432 384 432H64C55.18 432 48 424.82 48 416V96C48 87.18 55.18 80 64 80H384C392.82 80 400 87.18 400 96V416Z M288.5 146C281.0446 146 275 152.0446 275 159.5V219.0294L177.4591 149.3575C174.3519 147.1273 170.686 146.0023 167.0023 146.0011 164.183 146.0011 161.3542 146.6604 158.756 147.9862 152.762 151.08 149 157.25 149 164V344C149 350.75 152.762 356.9201 158.756 360.0139 161.3576 361.3498 164.1875 362 167 362 170.6911 362 174.3474 360.875 177.4591 358.6424L275 288.9706V348.5C275 355.9554 281.0446 362 288.5 362S302 355.9554 302 348.5V159.5C302 152.0446 295.9554 146 288.5 146ZM275 255.7899 259.3074 267 176 326.504V181.496L259.3062 241 275 252.209V255.7899Z"/></svg>