<svg xmlns="http://www.w3.org/2000/svg" viewBox="0 0 450 450"><path fill="#dddddd" d="M289 97H65C29.654 97 1 125.652 1 161V385C1 420.346 29.654 449 65 449H289C324.348 449 353 420.346 353 385V161C353 125.652 324.348 97 289 97ZM305 385C305 393.822 297.822 401 289 401H65C56.178 401 49 393.822 49 385V161C49 152.178 56.178 145 65 145H289C297.822 145 305 152.178 305 161V385ZM385 1H129C93.654 1 65 29.652 65 65V97H113V65C113 56.176 120.178 49 129 49H385C393.822 49 401 56.176 401 65V321C401 329.824 393.822 337 385 337H353V385H385C420.348 385 449 356.348 449 321V65C449 29.652 420.348 1 385 1Z"/></svg>